<svg width="800" height="520" viewBox="0 0 800 520" fill="none" xmlns="http://www.w3.org/2000/svg">
  <rect x="18" y="18" width="764" height="484" rx="28" fill="#0B1220" stroke="#3A4C6E" stroke-width="2"/>
  <rect x="50" y="50" width="220" height="76" rx="20" fill="#152339"/>
  <rect x="290" y="50" width="430" height="76" rx="20" fill="#152339"/>
  <rect x="50" y="150" width="340" height="180" rx="24" fill="#111B2F"/>
  <rect x="420" y="150" width="300" height="100" rx="24" fill="#111B2F"/>
  <rect x="420" y="270" width="300" height="90" rx="24" fill="#111B2F"/>
  <circle cx="120" cy="90" r="10" fill="#3B82F6"/>
  <circle cx="150" cy="90" r="10" fill="#60A5FA"/>
  <circle cx="180" cy="90" r="10" fill="#93C5FD"/>
  <rect x="72" y="190" width="240" height="18" rx="9" fill="#2E4A72"/>
  <rect x="72" y="224" width="180" height="18" rx="9" fill="#22314F"/>
  <rect x="72" y="258" width="220" height="18" rx="9" fill="#22314F"/>
  <rect x="72" y="292" width="140" height="18" rx="9" fill="#22314F"/>
  <rect x="72" y="330" width="280" height="18" rx="9" fill="#22314F"/>
  <rect x="438" y="180" width="140" height="18" rx="9" fill="#2563EB"/>
  <rect x="438" y="214" width="220" height="14" rx="7" fill="#324163"/>
  <rect x="438" y="242" width="160" height="14" rx="7" fill="#324163"/>
  <rect x="438" y="298" width="260" height="18" rx="9" fill="#2563EB"/>
  <rect x="438" y="334" width="180" height="18" rx="9" fill="#324163"/>
</svg>