<svg width="800" height="520" viewBox="0 0 800 520" fill="none" xmlns="http://www.w3.org/2000/svg">
  <rect x="20" y="20" width="760" height="480" rx="34" fill="#0F1724" stroke="#2E4A6A" stroke-width="2"/>
  <rect x="56" y="72" width="158" height="22" rx="11" fill="#2D6EFF"/>
  <rect x="56" y="112" width="548" height="18" rx="9" fill="#1E2D40"/>
  <rect x="56" y="148" width="500" height="18" rx="9" fill="#1E2D40"/>
  <rect x="56" y="184" width="420" height="18" rx="9" fill="#1E2D40"/>
  <rect x="56" y="234" width="680" height="260" rx="28" fill="#111827"/>
  <circle cx="120" cy="300" r="52" fill="#1F2937"/>
  <rect x="200" y="266" width="200" height="22" rx="11" fill="#2D6EFF"/>
  <rect x="200" y="304" width="340" height="18" rx="9" fill="#334155"/>
  <rect x="200" y="340" width="280" height="18" rx="9" fill="#334155"/>
  <rect x="200" y="376" width="380" height="18" rx="9" fill="#334155"/>
  <circle cx="560" cy="320" r="54" fill="#1F2937"/>
  <rect x="620" y="280" width="112" height="16" rx="8" fill="#2563EB"/>
  <rect x="620" y="312" width="112" height="16" rx="8" fill="#334155"/>
  <rect x="620" y="344" width="84" height="16" rx="8" fill="#334155"/>
</svg>